<?xml version="1.0" encoding="UTF-8" standalone="no"?>
<!-- Created with Inkscape (http://www.inkscape.org/) -->

<svg
   viewBox="0 0 125 125"
   version="1.1"
   id="at-counter-icon"
>
  <g
     id="at-counter">
    <path
       style="fill:#ffffff;stroke-width:0.434485"
       d="m 36.754483,112.75615 c -1.808986,-0.52651 -2.900123,-1.59222 -3.42538,-3.34553 -0.250152,-0.83501 -0.939415,-5.66866 -1.531697,-10.741449 l -1.076875,-9.22326 -1.796028,-2.03543 c -3.180522,-3.60448 -3.161629,-3.60778 -3.161629,0.55203 0,2.19309 -0.252152,4.23547 -0.628399,5.08989 -0.80187,1.82099 -13.712369,18.137829 -15.05998,19.033449 -0.5575146,0.37053 -1.7818458,0.67368 -2.7207345,0.67368 -3.3231368,0 -5.231105,-1.77324 -5.231105,-4.86173 0,-1.52825 -0.00419,-1.52245 9.2344025,-12.813519 l 4.592895,-5.61328 -0.008,-7.92999 -0.008,-7.93 2.559707,-11.63515 c 2.427518,-11.034298 2.635489,-11.71475 4.027186,-13.176399 1.910335,-2.006358 3.607843,-2.642278 6.378837,-2.38964 2.964152,0.27025 4.270804,1.227393 9.747495,7.140189 l 4.547307,4.90941 5.533605,0.24809 c 3.043482,0.13645 5.962803,0.46604 6.487375,0.73242 0.524572,0.26638 1.240545,1.13558 1.591054,1.93156 0.552356,1.25436 0.552356,1.6401 0,2.89446 -0.350509,0.79598 -1.042525,1.65301 -1.53781,1.90452 -0.538452,0.27343 -3.797234,0.45729 -8.10512,0.45729 h -7.204601 l -2.800155,-2.55131 -2.800155,-2.55132 -0.518175,2.44551 c -0.284996,1.34503 -0.991139,4.50176 -1.569206,7.01494 l -1.051032,4.56944 4.406623,4.51973 c 2.423643,2.48585 4.595565,5.09569 4.826493,5.79963 0.843241,2.57049 2.856718,22.254649 2.43694,23.824009 -0.651239,2.43468 -3.462745,3.83578 -6.135851,3.05776 z m 31.025535,-0.50449 c -0.769846,-0.73047 -0.769846,-36.767459 0,-37.497929 0.401973,-0.38141 6.06617,-0.50787 22.748136,-0.50787 H 112.74104 V 48.005767 21.765676 H 90.984236 c -18.969706,0 -21.8838,-0.0844 -22.748135,-0.658839 -0.903846,-0.600698 -0.991333,-1.006972 -0.991333,-4.603678 0,-2.812263 0.174389,-4.082167 0.607415,-4.423163 0.440418,-0.346818 8.135541,-0.448335 27.989128,-0.369243 l 27.381709,0.109082 0.11335,49.895346 c 0.083,36.52029 -0.0214,50.049349 -0.38914,50.469849 -0.69463,0.79416 -54.332181,0.85895 -55.167212,0.0666 z M 87.564063,65.781311 c -0.448219,-2.09497 -0.926577,-3.80905 -1.063016,-3.80905 -0.13644,0 -1.280145,1.02735 -2.541565,2.283 l -2.293489,2.28299 -4.277145,0.30427 c -6.887497,0.48996 -10.770202,0.16987 -12.077778,-0.9957 -0.603937,-0.53835 -1.200544,-1.48747 -1.325793,-2.10916 -0.289249,-1.43571 0.683537,-3.67618 1.854281,-4.27069 0.495285,-0.25151 3.372522,-0.47299 6.393858,-0.49217 l 5.493336,-0.0349 5.098464,-5.52197 c 6.600117,-7.148343 9.073415,-8.283243 13.703989,-6.288227 2.964836,1.277357 3.809585,3.154937 6.059005,13.467047 l 1.9618,8.99358 H 96.464507 88.379008 Z M 31.259755,43.975712 c -3.709645,-2.109824 -5.13002,-6.495774 -3.278749,-10.124385 1.472894,-2.886968 3.514378,-4.184892 6.904517,-4.389718 3.502446,-0.211612 5.95362,0.865846 7.714932,3.391236 1.751308,2.511039 1.751308,6.210213 0,8.721253 -2.415833,3.46385 -7.558236,4.552854 -11.3407,2.401614 z m 50.333408,0.159334 c -4.987631,-2.342538 -5.962215,-8.97495 -1.863041,-12.678722 5.308987,-4.796886 14.06304,-1.360796 14.049489,5.514626 -0.0062,3.164765 -1.181462,5.325829 -3.730382,6.859625 -2.540922,1.528983 -5.613343,1.63961 -8.456066,0.304471 z"
       id="path2440" />
  </g>
</svg>
