<?xml version="1.0" encoding="UTF-8" standalone="no"?>
<!-- Created with Inkscape (http://www.inkscape.org/) -->

<svg
   viewBox="0 0 125 125"
   version="1.1"
   id="eat-in-icon"
>
  <g
     id="layer1">
    <path
       style="fill:#ffffff;stroke-width:0.455444"
       d="m 3.4207808,121.83914 c -0.811924,-0.87484 -0.7142,-10.71738 0.116227,-11.70608 0.563447,-0.67085 0.564089,-1.08371 0.0052,-3.34654 -0.531101,-2.15034 -0.635608,-8.500769 -0.625988,-38.038199 l 0.01155,-35.45691 2.286748,-4.727588 2.286755,-4.727588 12.6144232,-0.125439 12.614424,-0.12544 V 13.486178 c 0,-7.9766547 0.126391,-10.2121997 0.601382,-10.6369517 0.426941,-0.381784 4.404152,-0.501423 13.711329,-0.412456 l 13.109949,0.125319 0.124521,5.6677637 c 0.108058,4.918385 0.02444,5.746604 -0.632314,6.264054 -0.535834,0.422172 -2.846327,0.59629 -7.912556,0.59629 h -7.155722 v 4.25483 4.254829 h 2.34519 c 2.843945,0 3.02081,0.185958 5.723934,6.018228 l 2.022415,4.363572 v 34.770697 34.770707 l -1.316288,2.80959 c -0.723958,1.54527 -1.316287,2.92202 -1.316287,3.05945 0,0.13742 1.480823,0.24986 3.290719,0.24986 h 3.290719 l 0.0018,-4.13664 c 0.0018,-4.69213 0.744378,-6.623072 3.038313,-7.901226 1.149382,-0.640422 1.288952,-0.924773 1.059826,-2.159188 -0.156976,-0.845681 0.02962,-2.249746 0.460613,-3.465686 0.65273,-1.841576 0.658591,-2.180227 0.05919,-3.41868 -0.968007,-2.00003 -0.821978,-4.07545 0.426188,-6.057236 0.862796,-1.369913 1.096906,-2.33567 1.096906,-4.524987 0,-2.556131 -0.108006,-2.866233 -1.322908,-3.798348 -2.176923,-1.670181 -2.757884,-3.420849 -2.531785,-7.629178 0.50376,-9.376443 7.848694,-17.692728 18.096924,-20.490193 4.1069,-1.121067 19.67043,-1.002618 23.970732,0.182433 9.78624,2.696824 15.7684,9.313423 17.11117,18.925896 0.61895,4.430865 0.0987,6.588281 -2.03029,8.418586 -1.47078,1.264464 -1.51988,1.412362 -1.51989,4.578758 -1e-5,2.35138 0.19978,3.509955 0.71002,4.117455 1.06087,1.263075 1.28509,4.68529 0.42447,6.478502 -0.66263,1.380674 -0.66326,1.611238 -0.008,2.976145 0.42067,0.876523 0.64401,2.225956 0.54797,3.310952 -0.12117,1.369138 0.0152,1.892047 0.54024,2.0716 0.38627,0.132099 1.28005,0.889567 1.98616,1.683263 l 1.28385,1.443072 0.12173,10.42458 c 0.0857,7.33611 -0.0277,10.61865 -0.3828,11.0796 -0.42544,0.55219 -9.71111,0.65501 -59.157335,0.65501 -45.033758,0 -58.7749642,-0.13173 -59.1792242,-0.56731 z M 118.28882,116.0242 v -2.12741 H 62.565974 6.8431288 v 2.12741 2.12742 H 62.565974 118.28882 Z m -69.848535,-8.62785 1.028561,-2.00922 H 28.345801 c -19.9115762,0 -21.1099612,0.0475 -20.8949312,0.82733 0.125462,0.45503 0.358121,1.41454 0.51702,2.13224 l 0.288908,1.30492 19.5774662,-0.12302 19.577466,-0.12302 z m 68.999855,1.75622 c 0.71067,-0.40981 0.84868,-1.00947 0.84868,-3.68752 0,-1.85709 -0.22077,-3.43601 -0.52651,-3.76544 -0.76064,-0.81957 -53.909182,-0.81957 -54.669821,0 -0.802242,0.8644 -0.679384,6.29182 0.16297,7.19944 0.611481,0.65886 3.667524,0.74291 27.012739,0.74291 17.306222,0 26.613982,-0.16764 27.171942,-0.48939 z M 50.719385,68.748321 V 36.364343 H 28.781257 6.8431288 V 64.493491 92.62264 h 3.9488632 3.948863 v 1.891035 1.891035 H 10.791992 6.8431288 v 2.363798 2.363792 H 28.781257 50.719385 Z M 18.689718,94.513675 V 92.62264 h 1.974431 1.974432 v 1.891035 1.891035 h -1.974432 -1.974431 z m 7.402198,-13.240513 c -3.17282,-0.585451 -5.879722,-2.096884 -8.454507,-4.720686 -9.2850662,-9.461832 -4.507496,-26.153371 8.277674,-28.919946 5.02249,-1.086811 10.945299,1.082892 14.365272,5.262439 2.32642,2.843115 3.266429,4.925211 3.902275,8.64344 1.424803,8.33183 -2.826052,16.098311 -10.36998,18.946376 -2.461819,0.92941 -5.355229,1.224861 -7.720734,0.788377 z m 7.567617,-5.271034 c 3.651117,-1.683669 6.481082,-5.974971 6.878393,-10.43025 0.206139,-2.311545 0.187088,-2.357729 -0.836786,-2.029029 -3.446374,1.106416 -11.471855,6.04667 -15.871163,9.769825 l -2.099323,1.77667 1.441179,0.814266 c 3.124299,1.76522 6.798533,1.799736 10.4877,0.09852 z M 21.358378,69.943294 c 2.868103,-2.605804 9.553995,-6.935253 13.998483,-9.06472 2.048007,-0.981253 3.780848,-1.968988 3.850758,-2.194971 0.06991,-0.225979 -0.676126,-1.3941 -1.657859,-2.595824 l -1.784968,-2.184955 -2.943314,3.189732 c -3.232719,3.503365 -7.426583,6.14325 -12.596091,7.92878 -2.893049,0.999251 -3.065712,1.137897 -2.974415,2.388411 0.09172,1.256257 1.407283,4.411506 1.839356,4.411506 0.110583,0 1.131205,-0.84508 2.26805,-1.877959 z M 23.296725,59.12775 c 3.968048,-2.045329 8.996659,-6.569882 8.033376,-7.228127 -1.595018,-1.089936 -7.097407,0.07293 -9.679741,2.045693 -1.559869,1.19166 -3.188832,3.50744 -4.075404,5.793711 l -0.70315,1.813266 1.457409,-0.307628 c 0.801575,-0.169201 3.036954,-1.12181 4.96751,-2.116915 z M 42.821659,42.746587 v -2.127415 h 1.974431 1.974432 v 2.127415 2.127414 H 44.79609 42.821659 Z m 32.468429,53.794207 c 0,-0.185171 -0.83088,-1.248878 -1.8464,-2.363794 -1.49147,-1.637438 -2.14746,-2.027119 -3.41248,-2.027119 -3.026106,0 -4.58524,2.449023 -2.541216,3.991644 1.000516,0.755086 7.800096,1.103145 7.800096,0.399269 z m 37.628692,0.03735 c 1.48722,-0.429388 1.80924,-2.473593 0.56119,-3.562507 -0.90516,-0.789744 -1.99772,-0.865754 -12.44458,-0.865754 H 89.583088 l -1.88135,1.989468 c -1.03474,1.094205 -1.88135,2.157912 -1.88135,2.363794 0,0.433265 25.612002,0.50415 27.098392,0.075 z M 81.957208,94.188847 c 0.67684,-0.69869 1.23061,-1.443285 1.23061,-1.654656 0,-0.21137 -1.32212,-0.38431 -2.93803,-0.38431 h -2.93803 l 1.48843,1.654656 c 0.81864,0.91006 1.58698,1.654655 1.70742,1.654655 0.12045,0 0.77277,-0.571655 1.4496,-1.270345 z m 31.856232,-6.861106 c 0.72873,-0.785191 0.65819,-2.059834 -0.16297,-2.944611 -0.60881,-0.655986 -3.31274,-0.742907 -23.110172,-0.742907 -20.24697,0 -22.49849,0.07585 -23.223078,0.782411 -0.923459,0.900468 -1.036037,2.086038 -0.275868,2.905107 0.759246,0.818076 46.012848,0.818076 46.772088,0 z M 112.58491,77.257979 V 75.130564 H 90.646778 68.708648 v 2.127415 2.127414 h 21.93813 21.938132 z m 3.31014,-7.179845 c 0.58912,-0.634773 0.68453,-1.308364 0.46733,-3.299549 -0.91147,-8.356068 -6.17031,-14.306262 -14.63684,-16.561071 -4.323992,-1.151565 -18.075272,-1.124443 -22.047822,0.04349 -8.19528,2.409406 -13.753179,8.3702 -14.904347,15.984765 -0.290127,1.919089 -0.231162,2.750558 0.252916,3.566265 l 0.631257,1.063708 h 24.748624 c 22.633712,0 24.811892,-0.06816 25.488882,-0.797601 z M 74.412568,64.493491 v -2.127414 h 1.97443 1.97443 v 2.127414 2.127415 h -1.97443 -1.97443 z m 30.274612,0 v -2.127414 h 1.75505 1.75505 v 2.127414 2.127415 h -1.75505 -1.75505 z M 88.452968,60.238662 v -2.127414 h 1.97443 1.97443 v 2.127414 2.127415 h -1.97443 -1.97443 z m 10.09154,-2.363794 v -2.127414 h 1.974432 1.97443 v 2.127414 2.127415 h -1.97443 -1.974432 z m -17.98927,-1.891035 v -2.127415 h 1.97443 1.97443 v 2.127415 2.127415 h -1.97443 -1.97443 z M 48.43244,29.982099 47.473187,27.854685 H 28.702744 9.9323018 l -0.886443,1.872201 c -0.487543,1.029711 -0.886442,1.987048 -0.886442,2.127415 0,0.140367 9.2772612,0.255213 20.6161372,0.255213 h 20.61614 z M 40.627846,17.784922 c 0,-3.89238 0.174079,-6.002499 0.526515,-6.382243 0.367727,-0.396217 2.74958,-0.567311 7.897726,-0.567311 h 7.371211 V 8.7079539 6.5805393 h -9.872157 -9.872158 v 8.5096577 8.509659 h 1.974431 1.974432 z"
       id="eat-in" />
  </g>
</svg>
