<?xml version="1.0" encoding="UTF-8" standalone="no"?>
<svg

   viewBox="0 0 125 80"
   version="1.1"
   id="logo"
>
  <g
     id="layer1">
    <path
       style="fill:#FFC72C;stroke-width:0.470971"
       d="m 20.016912,75.46287 v -1.4695 l 13.47173,-0.003 c 13.389038,-0.003 13.463139,-0.007 12.072595,-0.92474 -0.769523,-0.50759 -1.890282,-1.59505 -2.490573,-2.41656 l -1.091436,-1.49366 -3.071966,0.63032 c -1.689581,0.34667 -3.139987,0.49814 -3.223126,0.33659 -0.08314,-0.16154 -0.422152,-2.13587 -0.753367,-4.3874 -0.33121,-2.2515 -0.842723,-4.19349 -1.136692,-4.31551 -0.293965,-0.12203 -4.060615,0.44929 -8.370332,1.26958 -4.309714,0.82029 -7.909355,1.41193 -7.999196,1.31473 -0.08985,-0.0972 -0.277088,-0.93482 -0.416093,-1.86141 L 16.755717,60.45758 28.14497,58.35084 c 6.264088,-1.1587 11.500189,-1.98673 11.63578,-1.84006 0.135592,0.14668 0.27817,0.99892 0.316843,1.89388 0.06238,1.44354 -0.07412,1.64511 -1.209143,1.78577 -1.231718,0.15265 -1.268493,0.23488 -0.985791,2.20426 0.507344,3.53427 0.539015,3.58125 2.266838,3.36307 1.201665,-0.15163 1.583316,-0.42892 1.583316,-1.15024 0,-1.52938 1.239267,-3.69254 2.900831,-5.06345 2.90643,-2.398 6.922578,-2.23472 9.469916,0.38501 0.840933,0.86483 1.61098,1.82957 1.711202,2.14386 0.129341,0.40559 6.096444,-0.53813 20.559641,-3.25161 11.207572,-2.10268 21.834914,-4.08443 23.616317,-4.40388 3.18375,-0.57093 3.24382,-0.60916 3.52751,-2.244884 0.39537,-2.279757 2.79438,-4.900582 5.10075,-5.572373 2.87786,-0.838251 5.42257,-0.03003 7.50772,2.384519 1.71682,1.988031 2.69067,2.364411 3.92773,1.517993 0.56807,-0.388675 0.38658,-2.162236 -1.28994,-12.605781 -1.07306,-6.68441 -2.0446,-12.31837 -2.15897,-12.519913 -0.11436,-0.201543 -4.68518,-4.340841 -10.15738,-9.198447 L 96.518688,7.3470401 64.947061,13.240128 c -17.364395,3.241198 -32.030119,6.007035 -32.590497,6.146305 -0.560379,0.139266 -1.018871,0.555538 -1.018871,0.925046 0,0.409067 -0.664149,0.761392 -1.698117,0.900819 -0.933964,0.125947 -1.735774,0.201171 -1.7818,0.167171 -0.04602,-0.03399 -0.217649,-1.159962 -0.381387,-2.502123 L 27.178683,16.437045 62.095371,9.8971771 c 19.204175,-3.596927 35.182987,-6.429333 35.508451,-6.29423 0.479579,0.199073 19.935418,17.2079209 21.911618,19.1557639 0.4771,0.470253 5.09921,27.904594 5.10383,30.293603 7.7e-4,0.524056 -0.34166,0.857206 -0.88171,0.857206 -0.48586,0 -1.88322,0.23195 -3.10523,0.51545 -2.04967,0.4755 -2.26282,0.66331 -2.75034,2.42346 -1.03381,3.73253 -4.89,6.38683 -8.27403,5.69519 -2.07578,-0.42427 -4.36828,-2.01626 -5.22285,-3.62695 l -0.71111,-1.34029 -23.348172,4.44521 -23.348172,4.44521 -0.60749,1.97138 c -0.742857,2.41069 -2.614079,4.42787 -4.94364,5.32923 -1.50275,0.58146 3.402123,0.63364 34.816961,0.37054 L 122.8096,73.83168 v 1.55008 1.55007 H 71.413256 20.016912 Z m 30.997038,-5.1018 c 4.382837,-1.98092 2.899582,-9.10344 -1.895774,-9.10344 -1.191757,0 -1.953174,0.41543 -3.166052,1.72742 -1.402413,1.51702 -1.564721,1.94206 -1.332564,3.4896 0.285827,1.90529 1.353929,3.47921 2.793643,4.11662 1.313147,0.58139 1.886111,0.54476 3.600747,-0.2302 z M 114.0919,57.58682 c 2.33662,-2.93847 0.7143,-7.404446 -2.87918,-7.925817 -1.59868,-0.231953 -2.06141,-0.07307 -3.29804,1.132423 -0.93808,0.91445 -1.53167,2.036673 -1.70645,3.226114 -0.23904,1.62684 -0.0892,2.01728 1.38687,3.61398 1.51503,1.63882 1.81635,1.76665 3.56603,1.51279 1.28942,-0.18708 2.2429,-0.69444 2.93077,-1.55949 z M 1.7244587,59.49965 C 1.1315942,57.82842 1.4388308,56.46858 2.4697014,56.20114 3.0300796,56.05576 13.16784,54.14528 24.998057,51.955612 c 11.830215,-2.189668 23.58701,-4.379087 26.126207,-4.865387 5.007862,-0.959085 5.119145,-0.922617 5.119145,1.677713 0,0.855568 -0.315276,1.216239 -1.245283,1.424581 -0.68491,0.153437 -12.452859,2.374658 -26.151005,4.936041 C 15.148976,57.68995 3.5041582,59.89483 2.969745,60.02831 2.3485732,60.18345 1.8993826,59.99281 1.7244587,59.49965 Z M 24.777641,46.669768 c -0.15995,-0.922268 -0.198771,-1.776416 -0.08628,-1.898106 0.230102,-0.248905 23.516754,-4.628688 23.649004,-4.447934 0.04663,0.06373 0.222919,0.94245 0.391771,1.952738 0.260667,1.559609 0.184293,1.84027 -0.505967,1.85932 -0.447134,0.01235 -5.84054,0.964825 -11.985346,2.116637 L 25.06845,48.346614 Z M 9.3829076,42.270083 c -0.183885,-1.060305 -0.109308,-1.85601 0.192893,-2.058047 0.270979,-0.181162 6.6376744,-1.478591 14.1482104,-2.883177 10.801574,-2.020062 13.732506,-2.422545 14.023898,-1.925802 0.471185,0.803244 0.493944,3.322096 0.03002,3.322096 -0.422406,0 -26.265381,4.800484 -27.343215,5.079161 C 9.8786456,43.948086 9.6046016,43.54834 9.3829136,42.270083 Z M 51.796813,41.570664 c 0.09845,-0.730198 0.594682,-1.198613 1.552679,-1.465653 1.313701,-0.366192 1.425122,-0.572105 1.663924,-3.074917 0.527087,-5.524322 4.517997,-11.055686 9.611543,-13.321511 1.796493,-0.799164 2.030367,-1.08032 2.031874,-2.442672 0.0031,-2.487982 2.222246,-2.638499 2.937951,-0.199236 0.192815,0.657159 0.936395,0.942616 3.074148,1.180147 5.313314,0.590381 10.897331,4.527137 12.823895,9.0409 0.779157,1.825498 1.025623,2.025195 2.513536,2.036593 1.658128,0.01269 2.681706,1.156357 1.844993,2.061441 -0.43287,0.46825 -34.940552,7.247922 -36.922466,7.254104 -1.056857,0.0035 -1.251855,-0.180872 -1.132077,-1.069196 z M 14.365547,35.135817 c -0.278654,-0.987867 -0.56968,-3.268374 -0.417094,-3.268374 0.08008,0 5.847427,-1.102132 12.816347,-2.449182 6.968919,-1.347049 12.962892,-2.449181 13.319949,-2.449181 0.617228,0 1.470104,2.8266 1.004761,3.329966 -0.119222,0.128964 -5.775365,1.297561 -12.569215,2.596887 -6.793845,1.29933 -12.721518,2.464058 -13.172602,2.588285 -0.451088,0.124228 -0.893051,-0.03257 -0.982146,-0.348401 z m 76.745876,-5.896341 c 0,-0.637155 -0.601863,-4.762012 -1.337471,-9.166356 -0.7356,-4.404348 -1.295982,-8.05071 -1.245283,-8.103035 0.05074,-0.05232 0.79723,-0.170664 1.658974,-0.262988 l 1.566786,-0.167861 1.23911,7.280447 c 0.681512,4.004245 1.300993,7.339071 1.376615,7.410724 0.07565,0.07166 3.194113,-0.460966 6.929966,-1.183592 l 6.79247,-1.313873 0.24111,1.740531 c 0.1326,0.957286 0.23385,1.777953 0.22498,1.823704 -0.0295,0.152011 -15.885115,3.100758 -16.673043,3.100758 -0.512158,0 -0.774214,-0.39212 -0.774214,-1.158459 z"
       id="food-logo" />
  </g>
</svg>
