<?xml version="1.0" encoding="UTF-8" standalone="no"?>
<!-- Created with Inkscape (http://www.inkscape.org/) -->

<svg
   viewBox="0 0 125 125"
   version="1.1"
   id="pay-here-icon"
>
  <g
     id="pay-here">
    <path
       style="fill:#ffffff;stroke-width:0.45472"
       d="m 24.555786,113.01614 c -1.453397,-0.27721 -2.082901,-1.41177 -4.442891,-8.00748 l -2.106298,-5.886693 h -3.477911 c -3.067083,0 -3.61877,-0.1329 -4.6703827,-1.12511 L 8.6658292,96.871737 8.665278,84.806077 8.6647269,72.74042 5.0599463,62.499414 C 3.0773171,56.866862 1.4551657,51.692568 1.4551657,51.000986 c 0,-1.76777 1.26332,-2.94846 4.4550436,-4.163653 L 8.6658292,45.78818 v -6.847058 c 0,-6.65797 0.030551,-6.878158 1.1061811,-7.973227 L 10.878192,29.841726 H 31.469849 52.061508 L 75.278244,21.35375 c 12.769207,-4.668388 23.854809,-8.487977 24.634675,-8.487977 0.779861,0 1.779861,0.269435 2.222231,0.598745 0.44236,0.32931 2.0847,4.097283 3.64963,8.373274 l 2.84533,7.77453 3.22312,0.229404 c 5.00489,0.356223 4.94979,0.213637 4.96467,12.846668 l 0.0122,10.323215 3.60319,10.279018 c 1.98175,5.65346 3.60318,10.838526 3.60318,11.522373 0,1.743059 -1.74499,3.331824 -4.70155,4.280638 l -2.50911,0.80522 v 8.397539 c 0,8.27785 -0.0157,8.41483 -1.10515,9.61155 l -1.10514,1.21402 H 89.725926 64.836366 l -18.73394,6.842383 c -20.283366,7.4083 -20.060283,7.33528 -21.54664,7.05179 z m 16.886344,-8.03297 15.425641,-5.631793 -17.861518,-0.12003 c -9.823836,-0.066 -17.937946,-0.0422 -18.031356,0.0529 -0.170721,0.1738 3.166139,9.986913 3.688626,10.847593 0.153721,0.25322 0.521024,0.46552 0.816229,0.47177 0.295205,0.006 7.478275,-2.52293 15.962378,-5.62041 z m 72.42213,-8.876233 c 0.61986,-0.63106 0.70819,-2.9773 0.70819,-18.811195 V 59.205538 H 62.745805 10.919161 v 18.090204 c 0,15.833895 0.08833,18.180135 0.708191,18.811195 0.635367,0.64684 5.89183,0.72098 51.118453,0.72098 45.226625,0 50.483085,-0.0741 51.118455,-0.72098 z m 5.85349,-19.90914 c 1.13595,-0.495725 2.05995,-1.063502 2.05332,-1.261726 -0.007,-0.198229 -1.11187,-3.457378 -2.45611,-7.242557 l -2.44408,-6.882143 -0.0225,8.14387 c -0.0129,4.649259 0.1548,8.143869 0.39075,8.143869 0.22732,0 1.34272,-0.405592 2.47866,-0.901313 z M 8.5247323,48.815145 C 8.3249253,48.611727 5.6020782,49.609549 4.4277622,50.316531 3.6075335,50.81034 3.6770925,51.139728 6.0050948,57.785839 L 8.440496,64.738556 8.56408,56.859787 C 8.632051,52.526468 8.614345,48.906376 8.5247323,48.815145 Z M 114.57245,52.09399 V 47.276489 H 62.745805 10.919161 v 4.817501 4.8175 h 51.826644 51.826645 z m 0,-12.87683 c 0,-2.91856 -0.20994,-5.705829 -0.46652,-6.193929 -0.45701,-0.86936 -1.50435,-0.887457 -51.360125,-0.887457 -49.855772,0 -50.903112,0.0181 -51.360121,0.887457 -0.256587,0.4881 -0.466523,3.275369 -0.466523,6.193929 v 5.306472 H 62.745805 114.57245 Z M 104.36272,25.368333 c -0.88449,-2.460366 -2.01499,-5.676364 -2.51223,-7.146661 -0.49724,-1.470297 -1.16552,-2.775408 -1.48507,-2.900245 -0.477031,-0.186361 -39.226615,13.764943 -39.835393,14.342233 -0.103275,0.09794 10.078664,0.178066 22.62653,0.178066 h 22.814313 z"
       id="path2291" />
  </g>
</svg>
