<?xml version="1.0" encoding="UTF-8" standalone="no"?>
<!-- Created with Inkscape (http://www.inkscape.org/) -->

<svg
   viewBox="0 0 125 125"
   version="1.1"
   id="take-out-icon"
>
  <g
     id="layer1">
    <path
       style="fill:#ffffff;stroke-width:0.455444"
       d="m 15.238754,121.14245 c -0.41989,-0.48294 -0.895251,-4.91147 -1.569327,-14.62009 -0.531841,-7.660017 -1.160085,-14.097727 -1.396099,-14.306017 -0.236013,-0.20829 -1.154513,-0.59953 -2.04111,-0.86941 C 4.4523608,89.587533 1.3705003,82.757463 2.4681704,74.140113 3.9255327,62.698961 11.63633,30.696266 13.323697,29.085609 c 0.51899,-0.495397 2.92142,-0.61334 12.493304,-0.61334 h 11.850753 v 1.963239 1.96324 H 26.959421 16.251088 l -0.690772,2.290447 c -2.440766,8.093038 -6.1940208,23.591263 -7.8737778,32.512998 -2.4011598,12.75335 -1.5219861,17.7339 3.5681488,20.2137 1.629367,0.79379 3.424952,0.82612 45.872211,0.82612 h 44.176472 l -0.77833,-1.13388 c -1.488696,-2.16874 -2.526231,-5.89983 -2.524343,-9.07782 0.0032,-5.59188 2.267663,-17.127852 6.663633,-33.948756 1.61296,-6.171911 2.93266,-11.325415 2.93266,-11.452232 0,-0.126817 -4.01065,-0.230577 -8.91255,-0.230577 h -8.91255 v -1.96324 -1.963239 h 10.31376 c 6.11793,0 10.66716,0.180534 11.18244,0.443771 1.01526,0.518645 1.41704,1.731035 4.75094,14.336066 6.54555,24.747917 8.04352,36.649897 5.29767,42.092267 -2.39545,4.74785 -6.43589,6.82412 -13.2798,6.82412 -3.34481,0 -4.09634,0.12062 -4.09634,0.65742 0,3.8829 -2.01908,28.048747 -2.37799,28.461547 -0.35926,0.4132 -3.328127,0.54777 -12.084968,0.54777 h -11.60871 l -0.421225,-0.98162 c -0.231676,-0.53989 -0.744682,-5.98788 -1.140016,-12.10664 -1.083108,-16.763687 -1.056772,-16.578477 -2.357365,-16.578477 -0.599161,0 -1.10671,0.0491 -1.127885,0.10907 -0.02116,0.06 -0.502723,6.50702 -1.070105,14.326737 -0.567382,7.81971 -1.179217,14.44564 -1.359634,14.72429 -0.48647,0.75134 -23.291811,0.71448 -23.944461,-0.0387 -0.372183,-0.42952 -2.381694,-24.216617 -2.381694,-28.192717 0,-0.72658 -0.27888,-0.92869 -1.281455,-0.92869 H 41.5036 L 40.518485,106.3903 c -0.611272,8.82476 -1.186897,14.45389 -1.516833,14.83337 -0.429873,0.49442 -2.698869,0.61155 -11.846136,0.61155 -9.778203,0 -11.396201,-0.0941 -11.916762,-0.69278 z m 21.316005,-16.10423 0.884468,-12.870527 -10.298276,4e-4 -10.298276,4e-4 0.791086,10.797827 c 0.435098,5.9388 0.801582,11.73035 0.81441,12.87012 l 0.02332,2.07231 h 8.599399 8.5994 z m 30.36444,12.08173 c 0,-1.25109 1.328902,-20.127637 1.595323,-22.661007 l 0.240877,-2.29045 H 58.467698 48.179992 v 1.16787 c 0,2.00974 1.387478,21.663707 1.634598,23.154497 l 0.23504,1.41789 h 8.434782 c 7.831581,0 8.434787,-0.0564 8.434787,-0.7888 z m 31.267697,-0.62909 c 0.126201,-0.77985 0.45023,-5.24622 0.720065,-9.92527 0.269831,-4.67906 0.613819,-9.832557 0.764418,-11.452237 l 0.27381,-2.94486 H 89.579722 79.214262 l 0.252038,2.50859 c 0.13862,1.37972 0.456405,5.846087 0.70618,9.925267 0.24978,4.07918 0.578799,8.74187 0.731154,10.36154 l 0.277006,2.94486 h 8.388401 8.388395 z M 114.82718,86.819053 c 4.27447,-2.70011 4.8137,-8.05683 2.15409,-21.39887 -1.85093,-9.285205 -6.32935,-26.997251 -6.67151,-26.385589 -0.63042,1.127004 -5.06048,19.243949 -6.39934,26.170439 -1.73593,8.98073 -2.10235,13.46354 -1.34636,16.47159 0.64388,2.56198 2.63453,5.04477 4.79591,5.98157 2.00254,0.86795 5.3625,0.49037 7.46721,-0.83914 z m -58.648746,-2.90208 c -4.878588,-1.16708 -7.998442,-4.92558 -7.998442,-9.63577 0,-9.56469 12.960429,-13.456111 18.561399,-5.57313 2.575407,3.62471 2.575407,7.52154 0,11.14625 -2.220207,3.12479 -6.922793,4.93346 -10.562957,4.06265 z m 4.508479,-4.12946 c 0.829549,-0.33085 1.948745,-1.13606 2.487105,-1.78936 3.968397,-4.81565 -1.455132,-11.65358 -7.260954,-9.15454 -4.733652,2.03754 -4.982723,8.37628 -0.420211,10.69419 1.935651,0.98337 3.201895,1.04424 5.19406,0.24971 z M 31.040473,59.90178 c -0.502759,-0.199809 -1.53113,-0.98555 -2.285269,-1.746092 l -1.371161,-1.382806 v -7.380765 -7.380766 l 1.71262,-1.634759 c 1.625847,-1.551936 1.886369,-1.643139 5.141856,-1.80006 l 3.429235,-0.165296 v 2.010925 2.010925 h -2.481149 c -3.733823,0 -3.917605,0.320038 -3.917605,6.822114 0,2.998029 0.212911,5.830705 0.473135,6.294832 0.459604,0.819736 1.247789,0.843871 27.560344,0.843871 20.458429,0 27.221431,-0.128117 27.635678,-0.523531 0.373454,-0.356476 0.548464,-2.439731 0.548464,-6.528785 0,-5.490706 -0.07575,-6.043947 -0.884061,-6.456878 -0.486232,-0.248393 -1.411766,-0.451623 -2.056742,-0.451623 -1.085142,0 -1.172681,-0.146554 -1.172681,-1.96324 v -1.96324 h 1.721082 c 2.314127,0 4.654,1.271223 5.670726,3.080829 0.699086,1.244258 0.835161,2.519387 0.835161,7.826059 0,7.203961 -0.478353,8.70231 -3.227559,10.109695 -1.460433,0.747633 -3.26251,0.795475 -28.987606,0.769538 C 44.298243,60.277497 31.543233,60.101595 31.040473,59.90178 Z M 63.034241,52.147738 C 61.550338,51.793085 59.574938,50.264018 59.117733,49.116146 58.792736,48.300198 58.396516,48.070878 57.435519,48.142528 55.13679,48.31391 54.26325,48.113728 52.59552,47.033432 51.227586,46.14733 50.564908,46.00144 48.761044,46.189261 46.022396,46.474411 43.716688,45.38462 42.581791,43.268636 41.910379,42.0168 41.782546,40.550164 41.781947,34.091929 c -8.23e-4,-8.827188 0.708749,-13.637312 2.750925,-18.648525 1.204053,-2.954581 1.357884,-3.862041 1.359748,-8.0214298 l 0.0021,-4.689962 h 2.056742 2.056742 v 5.179848 c 0,4.3246608 -0.159525,5.5240898 -0.966253,7.2649168 -2.423048,5.228682 -2.809295,7.383762 -3.029937,16.905803 -0.223285,9.635873 -0.09183,10.350506 1.903999,10.350506 1.791432,0 2.092191,-0.796496 2.092191,-5.5407 v -4.493638 h 2.056742 2.056743 v 5.443387 c 0,5.284847 0.0324,5.463641 1.111984,6.138865 0.864997,0.541003 1.321832,0.588278 2.056742,0.212846 0.862575,-0.440652 0.944758,-0.879772 0.944758,-5.048177 v -4.565543 h 2.056742 2.056743 v 6.010782 c 0,6.399455 0.445718,7.950035 2.285269,7.950035 1.749652,0 2.285269,-1.607675 2.285269,-6.859346 v -4.920093 h 1.778259 1.77826 l 0.175371,3.315021 c 0.139639,2.639516 0.353888,3.439619 1.05142,3.926481 1.153335,0.804998 1.444131,0.774982 2.529551,-0.261094 0.848228,-0.809666 0.914108,-1.45425 0.914108,-8.943648 v -8.071098 h 2.056742 2.056742 v 2.181378 c 0,1.199758 0.184367,2.181378 0.409708,2.181378 0.834251,0 3.211287,-3.08439 3.496868,-4.53746 0.698749,-3.555315 -0.497599,-5.288033 -6.245837,-9.046093 C 71.580871,14.015519 71.03268,13.047741 71.03268,7.1121472 v -4.380135 h 2.056743 2.056742 v 3.955161 c 0,2.175339 0.215811,4.3400768 0.479582,4.8105288 0.26377,0.470452 2.22561,1.953005 4.359644,3.294562 2.134035,1.341557 4.382278,3.0677 4.996097,3.835872 4.458331,5.579444 2.469398,13.257597 -4.22337,16.304063 l -1.498469,0.682085 -9.14e-4,3.954745 c -8.96e-4,6.133004 -1.927638,8.753776 -6.435405,8.753776 -2.032413,0 -2.341093,0.133876 -3.117098,1.3519 -0.50982,0.800221 -1.631019,1.645885 -2.747524,2.072309 -1.932487,0.738078 -2.339174,0.779603 -3.92447,0.400724 z"
       id="take-out" />
  </g>
</svg>
